<?xml version="1.0" encoding="UTF-8"?><svg id="blauw" xmlns="http://www.w3.org/2000/svg" viewBox="0 0 125.36 147.22"><defs><style>.cls-1{fill:none;stroke:#868cea;stroke-linecap:round;stroke-miterlimit:10;stroke-width:10px;}</style></defs><g id="Laag_7"><path class="cls-1" d="m10.32,142.22l-5-19c-1.95-11.55,5.23-21.55,14-23,6.15-1.02,12.78,2.23,17,8,3.67,5.67,7.33,11.33,11,17,3.23,5.43,9.12,8.19,14,7,6.55-1.6,11.4-10.33,8-19-7.33-29.33-14.67-58.67-22-88-4.04-9.36,1.04-18.56,7-20,5.21-1.26,12.58,3.05,15,11.18,7,18.94,14,37.88,21,56.82,1.97,3.4,5.55,5.39,9,5,4.63-.53,8.53-5.3,8-11-2.33-13-4.67-26-7-39,.76-5.54,4.79-9.63,9-10,5.44-.48,11.61,5.2,11,13"/></g></svg>