<?xml version="1.0" encoding="UTF-8"?><svg id="roze" class="kronkel" xmlns="http://www.w3.org/2000/svg" viewBox="0 0 171.09 103.41"><defs><style>.cls-1{fill:none;stroke:#fc89e3;stroke-linecap:round;stroke-miterlimit:10;stroke-width:10px;}</style></defs><g id="Laag_6"><path class="cls-1" d="m5,68.37s7-24,28-26c2.34.11,4.12.72,5.5,1.5,8.2,4.66,10.22,20.14,5.5,38.5-2.19,6.55,1.41,13.53,7.5,15.5,5.49,1.77,11.82-.92,14.5-6.5,16.17-24.5,32.33-49,48.5-73.5,5.94-11.14,16.52-14.73,21-12,4.32,2.63,5.95,12.92,0,23-7.83,15.83-15.67,31.67-23.5,47.5-4.94,7.35-2.57,15.53,1.5,17.5,3.53,1.7,9.83-.55,13.5-6.5,8.17-10.5,16.33-21,24.5-31.5,2.22-3.36,6.52-4.59,10-3,3.15,1.44,5.03,4.92,4.5,8.5-1.67,4.33-3.33,8.67-5,13"/></g></svg>