<?xml version="1.0" encoding="UTF-8"?><svg id="Laag_2" xmlns="http://www.w3.org/2000/svg" viewBox="0 0 44 29.32"><defs><style>.cls-1{fill:none;stroke:#000;stroke-linecap:round;stroke-miterlimit:10;stroke-width:2px;}</style></defs><g id="Pattern2"><path class="cls-1" d="m18,1c5.11,2.17,6.13,3.34,6,4-.15.75-1.79.91-2,2-.15.77.5,1.53,1,2"/><path class="cls-1" d="m19,15c1.95.87,3.2,2.18,3,3-.14.58-1.84.22-5,1-1.32.32-1.78.57-2,1-.57,1.11.8,2.77,1,3"/><path class="cls-1" d="m3,25c.32-.35,1.71-1.81,4-2,2.88-.24,4.77,1.75,5,2"/><path class="cls-1" d="m25,17c2.81-.72,3.72-.44,4,0,.42.67-.6,1.75,0,3,.05.11.35.72,1,1,1.03.45,2.35-.19,3-1,.83-1.03.85-2.65,0-4"/><path class="cls-1" d="m28,4c.46.21,2.11,1.04,3,3,1.1,2.42.16,4.64,0,5"/><path class="cls-1" d="m39,11c-.46,1.33.13,2.64,1,3,1.01.42,2.63-.34,3-2"/><path class="cls-1" d="m17,28c.86.3,2.04.54,3,0,1.14-.64,1.27-1.99,2-2,.9-.02,1.29,2.05,2,2,.94-.06.93-3.78,2-4,.51-.11,1.38.54,3,4"/><path class="cls-1" d="m3,14c1.65.55,2.55,2.35,2,4s-2.35,2.55-4,2"/><path class="cls-1" d="m17,5c-2.3,1.12-2.9,2.2-3,3-.11.88.38,1.44,0,2-.59.88-2.22.17-3,1-.38.41-.6,1.23,0,3"/></g></svg>