<?xml version="1.0" encoding="UTF-8"?><svg id="Laag_2" xmlns="http://www.w3.org/2000/svg" viewBox="0 0 84.89 53.95"><defs><style>.cls-1{fill:none;}.cls-1,.cls-2{stroke-miterlimit:10;}.cls-1,.cls-2,.cls-3,.cls-4{stroke:#000;stroke-width:2px;}.cls-3{fill:#fff;}.cls-3,.cls-4{stroke-linejoin:round;}.cls-4{stroke-linecap:round;}</style></defs><g id="hand_l"><path class="cls-3" d="m17.72,6.91s-7.22-4-13.11,3c0,0-8.11,13.06,0,14.53l3.11-2.53s-3,11,3,16c0,0,12,16,23,15,0,0,7-1,11-6,0,0,14-1,13-13,1.79,0,4.48-.08,7.75-.38,6.31-.58,9.53-.9,12.25-2.62,3.03-1.92,7.06-6.26,6-10-1.04-3.67-6.89-6.49-14-5,0,0-7,1-10,1,0,0,8-14-13-12,0,0-16.99-10-28.99,2Z"/><line class="cls-2" x1="11.34" y1="13.91" x2="17.72" y2="6.91"/><path class="cls-1" d="m38.37,12.5s10.35,2.41,10.35,4.41h11"/><line class="cls-1" x1="46.56" y1="34.29" x2="59.71" y2="33.87"/><path class="cls-4" d="m18.74,21.96s7.97,3.18,10.41,1.81-9.26-3.32-10.41-1.81Z"/><path class="cls-4" d="m15.38,24.59s6.79,9.01,10.57,9.21c3.77.2-8.17-10.06-10.57-9.21Z"/><path class="cls-4" d="m12.53,27.89s6.66,6.01,6.24,8.55c-.42,2.54-7.34-7.1-6.24-8.55Z"/><path class="cls-1" d="m35.02,44.71s10.08,1.7,14.89.95"/></g></svg>