<?xml version="1.0" encoding="UTF-8"?><svg id="Laag_2" xmlns="http://www.w3.org/2000/svg" viewBox="0 0 80.14 49.55"><defs><style>.cls-1{fill:#fff;}.cls-1,.cls-2{stroke:#000;stroke-miterlimit:10;stroke-width:2px;}.cls-2{fill:none;}</style></defs><g id="hand_r"><path class="cls-1" d="m50.03,40.38s5-14,23-18c0,0,15-8-2-11,0,0,4-9-12-7-.05-.43-.18-.98-.53-1.5-1.84-2.71-8.14-2.15-12.47-.5-8.74,3.33-9.04,10.95-15,11-.02,0-.1,0-.26,0-4.38-.18-7.12-1.74-8.74-2.99-1.18-1.19-3.24-2.95-6.25-4-4.08-1.43-11.21-2-13.75,2-1.4,2.2-1.55,6,.65,8.12,1.45,1.4,3.37,1.55,4.14,1.56,0,0,10.22,2.32,10.22,9.32,0,0,0,5,5,6,0,0,0,22,21,13,0,0,5-2,7-6Z"/><path class="cls-2" d="m40.07,12.91s10.96.48,13.96,11.48"/><path class="cls-2" d="m33.03,23.38s-14,22,12,21"/><path class="cls-2" d="m51.18,18.65s11.86-8.26,19.86-7.26"/><path class="cls-2" d="m46.04,14.97s7.99-10.59,12.99-10.59"/></g></svg>