<?xml version="1.0" encoding="UTF-8"?><svg id="Laag_2" xmlns="http://www.w3.org/2000/svg" viewBox="0 0 190 190"><defs><style>.cls-1{fill:#fff;}.cls-1,.cls-2,.cls-3,.cls-4{stroke:#000;stroke-miterlimit:10;}.cls-1,.cls-2,.cls-4{stroke-width:2px;}.cls-2{fill:#ff6063;}.cls-3{fill:none;stroke-linecap:round;stroke-width:11px;}.cls-5{stroke-width:0px;}</style></defs><g id="hoofd"><circle class="cls-2" cx="95" cy="95" r="94"/><g id="ogen"><g id="oog_r"><ellipse class="cls-1" cx="147.95" cy="84" rx="17.05" ry="26.92"/><path class="cls-4" d="m143,59s7,5,9,20l-9,4.58,9,5.73s2,8.06-9,19.38c0,0-26-24.68,0-49.68Z"/></g><g id="oog_l"><ellipse class="cls-1" cx="107.05" cy="84" rx="17.05" ry="26.92"/><path class="cls-4" d="m102,59s7,5,9,20l-9,4.58,9,5.73s2,8.06-9,19.38c0,0-26-24.68,0-49.68Z"/></g></g><g id="mond"><ellipse class="cls-5" cx="152.5" cy="138.5" rx="7.5" ry="9.5"/><path class="cls-3" d="m82,126s26.65,41.76,63.93,22.15"/></g></g></svg>