<?xml version="1.0" encoding="UTF-8"?><svg id="Laag_2" xmlns="http://www.w3.org/2000/svg" viewBox="0 0 56.11 69.42"><defs><style>.cls-1{fill:#fff;}.cls-1,.cls-2{stroke:#000;stroke-miterlimit:10;stroke-width:2px;}.cls-2{fill:#62cdf1;}</style></defs><g id="schoen_l"><path class="cls-1" d="m7.73,3.67H2.7S-.27,15.67,1.73,21.67l6,.05V3.67"/><path class="cls-1" d="m52.73,61.67l2,4s-27,11-42-11c0,0-6-9-7-26h5l42,33Z"/><path class="cls-1" d="m5.73,28.67l-4-7,6,.05,3,5.95v1h-5Z"/><path class="cls-1" d="m33.73,31.67c.79.15,1.46.11,2,0,3-.64,5.29-4.25,6-9,0,0-10-4.75,0-14.87,0,0-4.85-9.13-11.43-4.13,0,0-21.57,28,3.43,28Z"/><path class="cls-2" d="m7.73,3.67v18.05l3,5.95s-3,47,42,34c0,0,3-18-18-21l-1-9s-12.85-4-3.43-28c0,0-8.57-6-22.57,0Z"/></g></svg>