<?xml version="1.0" encoding="UTF-8"?><svg id="Laag_2" xmlns="http://www.w3.org/2000/svg" viewBox="0 0 61.57 79.66"><defs><style>.cls-1{fill:#fff;}.cls-1,.cls-2{stroke:#000;stroke-miterlimit:10;stroke-width:2px;}.cls-2{fill:#62cdf1;}</style></defs><g id="schoen_r"><path class="cls-1" d="m17.25,74.2l2.67,4.26s11.74-3.86,15.76-8.74l-3.15-5.11-15.29,9.59"/><path class="cls-1" d="m42.49,5.26l2.33-3.82s23.66,17.03,12.99,41.43c0,0-4.44,9.86-18.31,19.74l-2.66-4.24,5.65-53.11Z"/><path class="cls-1" d="m39.49,62.61l-3.81,7.11-3.15-5.11,3.45-5.7.85-.53,2.66,4.24Z"/><path class="cls-1" d="m27.16,37.29c-.29-.75-.68-1.3-1.06-1.69-2.13-2.21-6.41-2.22-10.81-.3,0,0,1.29,11-12.6,7.9,0,0-5.15,8.96,2.57,11.87,0,0,35.18,3.41,21.9-17.78Z"/><path class="cls-2" d="m17.25,74.2l15.29-9.59,3.45-5.7s41.42-22.42,6.5-53.64c0,0-16.84,7.02-8.23,26.41l-7.09,5.63s3.44,13.01-21.9,17.78c0,0-.53,10.45,11.99,19.13Z"/></g></svg>